<svg xmlns="http://www.w3.org/2000/svg" viewBox="0 0 24 24" fill="currentColor" width="24" height="24">
  <path d="M12 2C6.48 2 2 6.48 2 12s4.48 10 10 10 10-4.48 10-10S17.52 2 12 2zm1.41 16.09V20h-2.67v-1.93c-1.71-.36-3.16-1.46-3.27-3.4h1.96c.1 1.05 1.18 1.91 2.53 1.91 1.33 0 2.26-.8 2.26-1.8 0-2.42-3.44-2.43-3.44-4.83 0-1.11.83-1.96 2.05-2.26V6h2.67v1.9c1.5.34 2.85 1.48 2.92 3.39h-1.95c-.15-1.1-1-1.78-2.2-1.78-1.15 0-2.07.83-2.07 1.76 0 2.14 3.44 2.2 3.44 4.8 0 1.25-.92 2.11-2.21 2.44z"/>
</svg>
